<?xml version="1.0" standalone="no"?>
<!DOCTYPE svg PUBLIC "-//W3C//DTD SVG 20010904//EN"
 "http://www.w3.org/TR/2001/REC-SVG-20010904/DTD/svg10.dtd">
<svg version="1.0" xmlns="http://www.w3.org/2000/svg"
 width="500.000000pt" height="500.000000pt" viewBox="0 0 500.000000 500.000000"
 preserveAspectRatio="xMidYMid meet">
<metadata>
Created by potrace 1.14, written by Peter Selinger 2001-2017
</metadata>
<g transform="translate(0.000000,500.000000) scale(0.100000,-0.100000)"
fill="#000000" stroke="none">
<path d="M2269 4418 c-1 -18 0 -67 1 -109 l1 -75 -40 -2 -41 -3 0 90 c0 71 -3
90 -15 95 -22 8 -27 -11 -23 -104 3 -61 0 -84 -9 -87 -17 -7 -17 -23 1 -23 8
0 14 -12 14 -32 0 -64 2 -68 22 -68 19 0 21 5 18 52 l-3 53 37 6 37 6 3 -46
c2 -38 7 -47 24 -49 18 -3 21 1 18 25 -2 15 -4 84 -5 153 -2 116 -8 150 -30
150 -5 0 -9 -15 -10 -32z"/>
<path d="M2466 4408 c-11 -61 -16 -223 -7 -253 7 -25 13 -30 36 -28 29 2 53
18 43 29 -4 3 -16 1 -27 -6 -20 -10 -21 -8 -22 27 -2 69 1 167 7 216 5 37 3
47 -9 47 -9 0 -17 -13 -21 -32z"/>
<path d="M2362 4421 c-20 -12 -29 -66 -27 -168 1 -59 6 -97 14 -107 17 -21 57
-21 65 0 4 11 1 14 -13 9 -16 -5 -20 1 -23 32 -6 47 -2 60 23 66 10 3 19 10
19 17 0 7 -8 9 -20 5 -22 -7 -23 -4 -21 65 0 26 7 49 15 55 8 6 23 15 33 22
16 10 14 12 -17 12 -19 0 -41 -3 -48 -8z"/>
<path d="M2713 4408 c-48 -53 -73 -146 -59 -222 8 -43 44 -71 80 -62 27 7 86
88 86 119 0 31 -23 14 -55 -41 -48 -81 -75 -78 -75 9 0 74 44 199 71 199 5 0
9 -9 9 -20 0 -11 5 -20 10 -20 14 0 13 33 -2 48 -18 18 -42 14 -65 -10z"/>
<path d="M1984 4403 c-48 -49 -64 -192 -27 -255 24 -42 71 -50 102 -17 22 24
54 107 45 120 -11 19 -22 7 -49 -56 -15 -36 -33 -65 -41 -65 -25 0 -36 51 -31
135 6 106 35 169 52 115 3 -11 10 -20 15 -20 5 0 4 14 -1 30 -12 34 -38 39
-65 13z"/>
<path d="M3009 4403 c0 -10 -2 -27 -5 -38 -2 -11 -6 -40 -9 -65 -11 -89 -12
-90 -54 -90 l-38 0 14 86 c10 67 11 90 2 101 -17 19 -27 6 -34 -47 -3 -25 -8
-64 -12 -88 -3 -24 -12 -46 -19 -49 -18 -7 -18 -23 -1 -23 11 0 12 -11 7 -45
-6 -38 -4 -48 10 -55 20 -11 30 11 30 68 0 31 2 32 41 32 l40 0 -3 -47 c-2
-38 0 -48 14 -51 17 -3 17 -2 33 143 8 72 17 131 22 138 2 4 1 16 -2 27 -8 25
-35 26 -36 3z"/>
<path d="M1824 4392 c-17 -11 -24 -40 -31 -116 -3 -39 -11 -74 -17 -78 -7 -6
-8 -10 -1 -15 6 -5 10 -27 10 -50 -1 -41 6 -49 33 -40 4 1 7 22 8 47 2 64 2
66 23 67 23 2 27 -7 36 -81 5 -35 13 -60 22 -63 23 -9 25 2 7 71 -13 53 -14
69 -4 81 10 12 10 15 -4 15 -9 0 -16 3 -17 8 -8 86 -43 169 -65 154z m34 -102
c11 -59 9 -70 -14 -70 -12 0 -15 14 -13 70 2 80 11 80 27 0z"/>
<path d="M3103 4382 c-24 -4 -32 -25 -52 -136 -18 -101 -15 -135 14 -148 22
-10 29 -9 43 6 16 17 16 18 -6 11 -23 -7 -24 -5 -20 41 3 41 7 49 26 54 28 6
29 26 2 22 -17 -3 -18 1 -13 35 12 77 18 88 46 91 15 2 27 10 27 18 0 13 -11
14 -67 6z"/>
<path d="M1603 4361 c-39 -18 -72 -56 -59 -69 4 -3 19 6 34 21 59 56 112 53
112 -7 0 -33 -32 -87 -44 -75 -4 3 -7 23 -8 43 -1 38 -19 62 -38 51 -6 -3 -8
-9 -6 -13 11 -18 16 -111 7 -117 -16 -9 -13 -25 4 -25 8 0 15 -8 15 -19 0 -10
3 -31 6 -47 5 -26 1 -31 -45 -57 -66 -37 -66 -45 0 -11 28 14 54 23 57 20 7
-7 33 14 28 23 -2 3 -7 29 -10 56 l-7 50 37 -62 c52 -88 75 -83 27 5 l-37 68
21 30 c43 60 34 125 -20 144 -16 5 -30 10 -31 10 -1 0 -20 -9 -43 -19z"/>
<path d="M3218 4363 c-13 -15 -23 -56 -53 -208 -2 -11 -7 -35 -11 -52 -5 -26
-3 -33 9 -33 23 0 27 10 53 137 12 63 25 117 27 119 2 2 9 -35 16 -83 19 -134
21 -147 27 -165 6 -21 29 -24 40 -6 13 21 63 273 56 280 -18 18 -35 -18 -55
-118 l-21 -109 -12 70 c-6 39 -14 88 -17 110 -11 76 -28 93 -59 58z"/>
<path d="M1234 4274 c-22 -22 -34 -45 -34 -63 0 -15 -5 -32 -12 -39 -8 -8 -1
-10 33 -6 82 9 114 30 130 87 15 53 13 57 -37 57 -40 0 -51 -5 -80 -36z"/>
<path d="M1094 4257 c-10 -27 4 -110 20 -119 21 -12 20 -49 -1 -92 -19 -37
-33 -46 -33 -22 0 58 -149 51 -150 -8 0 -4 30 -6 67 -5 l68 4 0 -62 c1 -35 -3
-63 -8 -63 -5 0 -7 -11 -5 -25 3 -14 1 -28 -4 -31 -4 -3 -5 -10 -2 -16 4 -6 3
-8 -2 -5 -6 3 -9 27 -8 52 2 38 -3 52 -24 76 -33 36 -65 43 -108 23 -37 -18
-46 -33 -36 -66 15 -51 71 -93 118 -88 11 1 24 2 30 1 18 -2 23 -38 9 -57 -11
-16 -15 -16 -57 4 -24 12 -49 22 -55 22 -6 0 -18 12 -27 26 -11 16 -25 24 -39
23 -12 -1 -30 1 -40 6 -29 12 -85 -4 -112 -33 -18 -19 -25 -22 -27 -12 -6 65
-23 81 -90 85 -27 2 -38 -2 -38 -11 0 -8 -5 -14 -12 -14 -14 0 -58 -48 -59
-64 0 -6 -2 -20 -4 -30 -2 -11 0 -27 5 -37 8 -13 5 -16 -14 -16 -13 0 -36 -7
-52 -14 -24 -12 -29 -21 -29 -49 0 -19 -6 -40 -14 -46 -12 -9 -11 -22 4 -83
17 -68 21 -75 77 -122 65 -54 65 -57 -2 -32 -59 22 -87 48 -87 81 0 15 -5 40
-12 55 -6 16 -11 31 -11 35 0 4 -12 16 -27 26 -20 15 -42 19 -90 19 -34 -1
-63 3 -63 9 0 5 -5 6 -10 3 -6 -4 -8 -11 -5 -16 4 -5 8 -30 9 -57 7 -99 46
-132 159 -137 40 -2 89 -9 109 -17 69 -26 61 -32 -43 -28 -97 3 -152 -44 -151
-127 1 -26 -4 -53 -11 -62 -10 -12 -9 -14 8 -7 15 6 116 22 166 26 11 0 47 76
54 113 6 29 13 39 34 44 53 14 73 6 86 -34 5 -20 3 -23 -20 -23 -59 0 -115
-54 -115 -111 0 -31 6 -42 33 -63 19 -15 41 -26 50 -26 9 0 19 -4 22 -10 3 -5
2 -10 -4 -10 -17 0 -33 -40 -27 -65 6 -25 84 -71 130 -78 23 -3 29 -8 25 -19
-6 -20 -15 -347 -9 -368 0 -3 2 -59 4 -125 4 -118 9 -160 26 -200 5 -11 12
-33 16 -50 27 -112 73 -257 98 -307 62 -127 134 -257 173 -308 58 -77 208
-237 258 -275 14 -11 59 -52 100 -91 98 -95 338 -238 434 -259 18 -4 47 -17
65 -29 31 -21 86 -35 296 -75 154 -29 204 -35 315 -35 130 0 250 10 351 30
l81 17 32 -24 c23 -17 47 -24 86 -26 58 -2 73 6 150 78 45 42 165 95 165 73 0
-7 -26 -33 -59 -58 -114 -88 -126 -192 -32 -273 14 -13 27 -27 27 -33 1 -5 2
-16 3 -22 1 -7 8 1 17 19 9 17 34 48 56 69 22 20 46 51 54 69 16 38 10 100
-14 135 -26 39 -43 73 -38 77 2 3 13 0 24 -6 27 -15 109 -14 118 1 4 6 13 -12
21 -43 16 -64 30 -80 72 -84 24 -2 39 5 61 27 17 16 30 36 30 44 0 11 5 11 28
3 55 -22 117 -7 177 42 11 9 29 19 40 23 11 3 35 30 52 59 18 29 44 62 59 73
39 27 73 63 100 106 14 21 26 38 28 38 7 0 -5 -43 -21 -79 -9 -19 -16 -45 -15
-58 0 -13 -17 -41 -40 -66 -86 -92 -92 -104 -94 -181 -1 -52 3 -82 17 -114 23
-50 46 -55 47 -11 0 17 10 41 20 53 11 11 23 35 26 51 4 17 9 41 12 55 5 25 8
44 19 130 7 52 20 71 23 34 5 -60 94 -175 117 -152 13 12 -30 127 -78 213 -13
22 -22 54 -21 70 1 17 2 54 3 83 1 60 14 67 32 19 7 -21 29 -46 58 -66 56 -38
83 -44 108 -26 15 12 16 14 2 15 -9 0 -20 13 -25 33 -9 27 -7 33 11 42 15 8
19 19 17 44 -2 24 1 32 11 28 20 -7 38 29 31 61 -4 15 -16 36 -28 47 l-21 20
75 8 c41 5 85 12 97 17 32 13 57 55 45 76 -7 12 -5 28 5 52 11 27 12 41 4 59
-11 24 -21 26 -99 23 l-42 -2 25 38 c25 37 28 49 26 94 -1 15 1 20 6 14 21
-30 100 -58 168 -59 63 -2 125 13 125 31 0 3 -6 2 -12 -1 -7 -4 -1 4 13 17 35
31 65 138 38 138 -5 0 -9 6 -9 13 0 25 -21 37 -44 25 -12 -6 -18 -7 -13 -3 4
5 0 19 -8 32 -15 22 -14 26 4 57 27 43 26 58 -5 107 -25 40 -27 41 -67 35 -23
-4 -49 -14 -59 -23 -17 -15 -18 -14 -19 28 -1 24 -1 47 0 52 0 4 -4 7 -9 7 -6
0 -10 7 -10 15 0 8 -4 15 -10 15 -16 0 -12 20 10 47 15 19 17 30 9 44 -8 16
-21 19 -80 19 -61 0 -76 -4 -112 -29 -64 -44 -89 -76 -91 -114 -2 -20 -10 -43
-19 -52 -16 -15 -17 -15 -17 10 0 37 43 123 82 165 60 64 86 76 164 78 81 2
99 7 140 42 43 37 71 82 69 109 -2 25 -32 54 -46 46 -4 -3 -10 -1 -14 5 -3 6
1 12 9 15 9 3 23 7 32 10 26 8 -60 101 -110 118 -88 29 -181 -6 -213 -82 -8
-18 -16 -31 -19 -29 -2 3 -6 47 -8 99 -3 52 -9 108 -14 124 -10 32 -7 229 4
246 7 11 44 7 88 -10 16 -7 36 -9 43 -6 8 3 23 0 34 -5 16 -9 19 -7 19 12 0
33 -10 44 -54 62 -57 24 -102 21 -131 -9 -14 -13 -25 -32 -25 -42 0 -20 -20
-5 -24 18 -1 8 -7 24 -14 36 -7 12 -14 40 -16 62 -3 37 0 44 29 69 30 25 33
34 39 100 8 86 -4 98 -58 61 -45 -31 -65 -66 -60 -109 4 -35 4 -35 -12 -12 -9
13 -17 42 -19 65 -2 23 -8 53 -14 67 -21 50 -80 100 -117 100 -16 0 -31 15
-53 50 -17 27 -40 55 -51 62 -11 7 -20 17 -20 23 0 21 -221 235 -302 293 -27
18 -58 32 -75 32 l-28 -1 30 -26 c17 -14 54 -47 84 -72 107 -91 132 -118 259
-277 43 -53 70 -108 76 -156 8 -53 33 -89 85 -122 25 -16 41 -37 52 -67 l16
-45 -43 10 c-40 10 -45 15 -69 66 -29 63 -60 119 -75 134 -17 17 -12 3 35 -93
30 -60 47 -108 49 -140 4 -48 18 -84 43 -109 13 -13 15 -27 18 -112 1 -25 5
-57 8 -71 9 -37 54 -77 98 -89 36 -10 39 -14 39 -45 0 -33 -1 -34 -30 -29 -16
4 -44 1 -60 -6 -17 -7 -33 -11 -35 -8 -3 3 -7 27 -10 54 -3 27 -8 60 -11 74
-3 14 -8 36 -11 50 -13 74 -96 274 -183 441 -87 168 -331 425 -528 557 -68 45
-131 82 -140 82 -17 0 -9 -6 111 -78 30 -17 61 -40 68 -49 8 -9 57 -51 109
-93 52 -43 109 -93 127 -111 75 -79 216 -270 254 -344 45 -87 85 -185 81 -199
-2 -4 2 -13 7 -20 13 -16 73 -178 67 -183 -2 -3 0 -18 5 -35 7 -26 4 -36 -16
-60 -16 -19 -25 -42 -25 -63 0 -19 -4 -37 -10 -40 -5 -3 -10 1 -10 9 0 9 -3
15 -7 15 -24 -4 -37 6 -67 54 -19 28 -44 61 -57 73 -25 22 -63 40 -57 26 2 -4
10 -20 18 -37 18 -37 67 -85 113 -109 35 -19 72 -69 63 -84 -2 -4 -1 -14 3
-20 5 -8 8 2 9 24 2 47 10 74 30 97 23 26 29 21 36 -29 5 -40 3 -50 -19 -76
-14 -16 -25 -36 -25 -44 0 -8 -4 -14 -10 -14 -5 0 -10 3 -10 8 0 11 -96 62
-118 62 -12 0 -24 -5 -27 -10 -4 -6 -3 -9 2 -8 4 1 26 -8 48 -20 35 -20 37
-22 13 -19 -22 3 -35 -4 -63 -34 -57 -62 -73 -98 -61 -139 6 -19 15 -41 20
-48 12 -20 2 -24 -28 -12 -44 16 -66 12 -133 -27 -74 -45 -78 -62 -30 -118 25
-29 41 -38 68 -40 54 -2 110 -26 104 -45 -3 -11 8 -24 35 -40 22 -14 42 -32
45 -40 8 -23 51 -70 64 -70 7 0 9 -5 6 -11 -4 -5 -19 -7 -34 -4 -23 5 -35 -1
-70 -35 -40 -39 -42 -43 -37 -88 l5 -47 -18 55 c-16 46 -17 57 -6 70 22 25 11
61 -25 80 -16 9 -25 6 -46 -15 -25 -25 -25 -26 -8 -54 10 -16 27 -34 38 -40
20 -11 20 -11 -2 -7 -26 5 -54 -18 -46 -39 10 -25 -19 -17 -47 13 -62 67 -71
108 -27 127 31 13 35 50 9 65 -15 8 -27 8 -41 0 -18 -10 -20 -17 -14 -63 9
-68 -5 -54 -20 20 -11 56 -10 59 13 79 20 17 22 23 12 42 -14 26 -62 30 -81 7
-15 -18 -5 -65 15 -65 8 0 19 -16 24 -37 14 -49 13 -75 -1 -46 -6 13 -19 25
-30 29 -24 7 -50 -14 -43 -36 6 -20 -46 -123 -102 -202 -53 -76 -59 -81 -83
-68 -20 11 -70 4 -70 -10 0 -4 9 -18 20 -32 25 -32 11 -48 -42 -48 -79 0 -147
-50 -113 -83 12 -13 9 -16 -26 -25 -112 -28 -292 28 -344 107 -10 16 -22 28
-25 26 -3 -2 -6 4 -7 13 -1 20 -47 129 -58 140 -5 4 -5 -1 -2 -10 4 -10 2 -18
-3 -18 -5 0 -9 11 -8 24 1 14 6 22 10 20 4 -3 8 -2 8 3 0 4 -14 14 -31 22 -16
7 -28 15 -25 18 2 2 14 0 25 -7 20 -10 21 -9 16 22 -3 18 -10 34 -15 36 -5 2
-7 9 -4 16 4 10 15 11 40 6 24 -6 32 -5 27 4 -4 6 1 5 10 -3 9 -7 17 -9 17 -4
0 6 20 31 45 56 25 26 45 42 45 37 0 -6 -19 -28 -42 -50 -31 -28 -38 -40 -25
-40 9 0 17 6 17 13 0 8 4 7 10 -3 8 -12 10 -12 11 5 0 11 3 14 6 8 6 -16 33
-17 33 -2 0 5 -5 7 -12 3 -6 -4 -8 -3 -4 4 3 5 1 12 -6 14 -7 3 -4 7 7 12 11
4 16 4 13 0 -4 -3 -1 -12 5 -19 10 -10 18 -10 42 2 40 21 40 20 26 37 -7 8
-19 12 -27 9 -9 -3 -14 1 -14 13 0 16 2 17 10 4 5 -8 10 -11 10 -6 0 5 9 1 19
-8 24 -22 44 -12 35 17 -6 21 -5 21 8 4 13 -18 16 -17 43 20 17 21 28 44 27
52 -2 7 1 10 6 7 11 -7 37 49 35 76 -1 10 2 16 6 13 12 -7 22 38 12 48 -5 5
-18 3 -29 -4 -12 -7 -24 -10 -27 -7 -8 8 17 48 29 48 5 0 1 -9 -9 -20 -10 -11
-13 -20 -7 -20 6 0 14 5 17 11 4 6 13 8 21 5 16 -6 15 -9 19 67 1 31 -1 57 -5
57 -13 0 -50 -65 -40 -68 14 -5 12 -20 -2 -18 -7 0 -14 -3 -16 -9 -2 -5 -10
-17 -17 -25 -9 -10 -11 -21 -5 -30 5 -8 6 -18 4 -22 -3 -4 1 -8 10 -8 8 0 16
6 19 13 2 6 4 0 3 -14 -1 -25 -3 -26 -21 -13 -11 8 -21 19 -21 24 -3 21 -4 21
-19 6 -17 -16 -20 -30 -6 -21 14 8 25 -15 13 -27 -8 -8 -16 -7 -29 3 -10 7
-15 9 -11 5 5 -5 -1 -15 -11 -23 -14 -9 -18 -22 -16 -43 2 -18 -1 -30 -7 -30
-6 0 -8 3 -5 7 4 3 2 12 -4 20 -9 10 -8 13 1 13 8 0 10 3 7 7 -4 3 4 25 17 48
44 74 74 241 49 266 -5 5 -35 -37 -68 -92 -63 -107 -99 -152 -142 -181 -30
-19 -89 -25 -78 -8 4 7 -3 9 -18 6 -23 -4 -24 -2 -20 37 7 71 9 83 17 95 4 7
4 12 -1 12 -4 0 0 5 9 11 15 8 15 13 5 23 -6 8 -16 11 -21 8 -5 -3 -6 0 -2 6
4 7 3 12 -3 12 -5 0 -12 -6 -14 -12 -4 -10 -6 -10 -6 0 -1 7 6 15 14 18 8 4
12 10 9 16 -3 5 3 4 15 -3 12 -8 16 -16 10 -20 -8 -4 -8 -9 -1 -13 6 -3 18 8
26 26 16 31 10 47 -18 48 -5 0 -7 3 -4 6 4 3 15 1 25 -5 21 -11 31 -3 66 51
19 31 21 38 8 38 -5 0 -14 -13 -20 -30 -9 -29 -31 -42 -31 -19 0 5 5 7 10 4 6
-3 10 3 10 13 0 23 25 46 39 37 6 -3 29 12 51 33 39 37 40 40 24 56 -9 9 -13
20 -10 24 7 6 21 -11 29 -32 2 -5 9 -6 16 -2 11 7 11 10 0 18 -11 8 -10 9 4 4
9 -3 33 3 51 14 19 10 37 16 40 13 3 -4 6 -2 6 4 0 12 108 9 120 -3 22 -24 42
-117 45 -207 2 -54 5 -100 7 -102 2 -3 18 -1 35 4 34 10 54 -1 52 -28 0 -11
-3 -10 -9 4 -7 17 -9 15 -9 -12 -1 -18 4 -33 10 -33 5 0 7 6 3 13 -5 7 -1 7
10 -2 15 -13 19 -13 27 0 5 8 9 10 9 5 0 -4 9 2 21 15 20 24 20 24 9 1 -13
-28 5 -31 20 -3 8 15 7 22 -5 28 -9 5 -17 19 -20 31 -2 14 0 20 6 16 6 -3 8
-8 5 -11 -3 -3 4 -14 14 -26 11 -11 17 -24 14 -29 -3 -4 -1 -8 5 -8 17 0 24
22 10 31 -8 5 -9 9 -3 9 5 0 15 -5 22 -12 7 -7 12 -8 12 -2 0 6 8 19 19 30 10
12 22 35 25 52 6 25 3 33 -14 42 -20 11 -21 10 -15 -12 5 -21 5 -21 -6 -4 -9
14 -8 21 6 35 10 9 15 11 11 5 -3 -7 1 -15 10 -18 13 -5 15 -2 9 11 -4 10 -7
26 -7 36 0 9 -3 15 -9 12 -5 -4 -18 0 -30 8 -11 8 -16 18 -11 21 6 3 13 -2 16
-11 5 -11 10 -13 17 -6 11 11 -28 103 -43 103 -4 0 -8 6 -8 14 0 8 -12 24 -26
35 -15 12 -23 21 -19 21 3 0 -30 36 -75 80 -109 107 -186 146 -285 143 -199
-4 -358 -114 -500 -344 -25 -40 -45 -69 -45 -64 0 4 -9 0 -20 -10 -11 -10 -23
-16 -26 -12 -3 3 4 10 15 17 18 9 20 14 10 33 -24 46 -84 137 -92 137 -4 0 -3
-9 3 -19 5 -11 10 -23 10 -28 -1 -4 -7 3 -15 17 -9 17 -10 29 -3 37 7 9 3 15
-16 23 -14 5 -26 12 -26 16 0 3 6 4 14 1 9 -4 12 0 9 11 -3 13 13 25 66 50 52
23 69 36 65 47 -3 8 -10 12 -15 9 -5 -3 -6 -10 -3 -16 4 -7 2 -8 -4 -4 -9 5
-8 12 1 26 11 19 12 19 25 -6 l13 -25 37 22 c53 32 57 36 42 54 -7 8 -8 15 -2
15 5 0 13 -7 16 -16 8 -21 28 -7 21 16 -5 14 17 35 33 31 7 -2 0 -16 -8 -16
-5 0 -10 -3 -10 -7 0 -5 0 -10 0 -13 0 -3 9 -1 21 6 14 7 19 17 16 30 -3 10 0
22 5 26 6 3 8 1 4 -5 -3 -6 -1 -14 5 -18 8 -5 10 1 6 22 -5 25 -4 27 8 11 9
-12 15 -15 20 -7 4 6 -1 18 -11 25 -18 13 -18 14 0 32 18 17 18 17 6 -6 -11
-21 -10 -23 4 -18 10 4 15 3 11 -3 -3 -6 -2 -10 4 -10 13 0 22 15 14 24 -11
10 -12 37 -2 30 5 -3 9 0 9 5 0 6 5 11 12 11 6 0 3 -9 -7 -20 -10 -11 -13 -20
-7 -20 21 0 43 60 43 118 1 69 -4 105 -13 112 -4 3 -9 15 -11 25 -9 44 -28 77
-42 72 -9 -4 -12 -1 -8 9 7 18 -43 74 -66 74 -8 0 -11 3 -8 6 9 9 -24 33 -138
98 -109 62 -176 85 -273 96 -193 20 -532 -29 -666 -97 -15 -8 -41 -28 -57 -44
-15 -16 -31 -24 -34 -19 -8 13 -71 13 -96 0 -16 -9 -19 -7 -19 14 0 13 7 32
16 40 19 19 14 19 53 0 20 -10 42 -13 58 -9 29 7 83 42 83 54 0 4 -21 8 -47 8
-64 2 -93 6 -93 14 0 17 50 35 95 34 57 -2 108 25 131 70 19 37 19 62 0 46
-18 -15 -66 -24 -66 -12 0 5 7 11 15 15 8 3 15 10 15 16 0 6 -19 -2 -42 -17
-46 -30 -59 -43 -52 -54 2 -4 -3 -10 -12 -13 -10 -4 -13 -2 -8 7 5 9 4 9 -7 0
-21 -21 -29 -15 -19 13 6 14 10 36 10 49 0 17 13 33 45 56 47 33 55 55 10 25
-46 -30 -158 -121 -186 -150 -26 -27 -27 -28 -34 -7 -8 26 -31 28 -37 3 -6
-20 -38 -26 -38 -8 0 7 10 18 22 26 24 16 65 55 110 105 15 17 60 57 102 90
74 60 74 60 44 63 -20 2 -41 -4 -57 -17 -69 -54 -101 -72 -118 -68 -15 3 -14
6 8 15 55 22 78 104 32 110 -28 4 -102 -34 -126 -65 -30 -38 -31 -20 -1 39 39
77 40 119 5 157 -31 33 -49 39 -57 18z m79 -258 c38 -10 42 -29 7 -29 -35 0
-68 -22 -82 -54 -14 -33 -14 -36 -17 -63 -2 -16 -3 -15 -10 2 -5 11 -5 25 -2
30 4 6 7 19 6 30 -1 28 33 95 48 95 6 0 29 -5 50 -11z m-83 -172 c0 -2 -10
-12 -21 -23 -22 -19 -22 -19 -10 4 10 18 31 31 31 19z m212 -39 c-29 -77 -73
-111 -80 -62 -2 14 12 34 42 62 25 23 48 42 50 42 2 0 -3 -19 -12 -42z m-467
-122 c17 -12 16 -14 -18 -18 -20 -2 -37 -3 -37 -2 0 1 3 9 6 18 8 20 24 20 49
2z m70 -26 c3 -5 2 -10 -4 -10 -5 0 -13 5 -16 10 -3 6 -2 10 4 10 5 0 13 -4
16 -10z m1605 -82 c0 -12 -6 -9 -26 13 -19 22 -19 22 4 8 12 -8 22 -17 22 -21z
m-615 12 c-4 -7 2 -9 17 -7 12 2 17 2 10 0 -7 -3 -9 -9 -6 -15 4 -6 -2 -5 -15
2 -18 9 -21 30 -5 30 3 0 2 -5 -1 -10z m95 6 c0 -3 -4 -8 -10 -11 -5 -3 -10
-1 -10 4 0 6 5 11 10 11 6 0 10 -2 10 -4z m-49 -39 c-13 -12 -20 -15 -15 -7
12 22 28 39 33 34 3 -3 -6 -15 -18 -27z m93 22 c-2 -4 4 -12 13 -18 14 -8 15
-10 3 -11 -8 0 -20 8 -27 18 -9 15 -8 19 3 19 7 0 11 -4 8 -8z m41 -38 c52 0
130 -8 154 -17 12 -4 12 -2 0 13 -12 16 -11 16 8 0 12 -11 27 -16 34 -11 7 4
10 3 6 -3 -4 -6 4 -14 17 -17 35 -9 66 -57 73 -114 13 -115 -104 -223 -312
-289 -67 -21 -69 -21 -71 3 0 12 -4 26 -8 32 -3 6 0 12 6 15 10 4 10 7 1 18
-9 9 -10 16 -2 26 15 17 -1 16 -23 -1 -10 -7 -15 -16 -11 -19 3 -4 1 -7 -5 -7
-19 0 -14 18 8 30 11 6 19 14 18 18 -1 4 3 17 10 28 6 12 9 24 5 27 -3 4 -5
38 -5 77 0 57 -3 75 -18 90 -10 10 -22 15 -26 12 -4 -4 0 4 9 17 8 13 13 31
10 40 -4 13 -3 14 5 2 6 -8 7 -22 3 -30 -9 -17 -4 -41 8 -41 4 0 7 19 6 43 -2
44 10 71 27 61 6 -4 5 4 -2 17 l-11 24 18 -22 c14 -17 29 -22 68 -22z m20 10
c-6 -5 -25 10 -25 20 0 5 6 4 14 -3 8 -7 12 -15 11 -17z m51 15 c13 2 24 0 24
-6 0 -6 -4 -8 -10 -5 -5 3 -10 0 -10 -7 0 -10 -2 -10 -9 0 -4 8 -12 13 -17 12
-5 -1 -9 3 -10 10 -2 6 0 6 2 1 3 -5 16 -7 30 -5z m-556 1 c0 -2 -9 -12 -19
-21 -14 -13 -21 -14 -27 -5 -4 8 -3 10 5 5 6 -4 14 0 17 8 5 14 24 23 24 13z
m315 -19 c4 4 1 -3 -6 -15 -8 -13 -18 -23 -23 -23 -6 0 -5 5 2 12 8 8 8 17 1
32 -9 19 -9 19 4 4 8 -10 17 -14 22 -10z m80 12 c3 -5 1 -10 -4 -10 -6 0 -11
5 -11 10 0 6 2 10 4 10 3 0 8 -4 11 -10z m-381 -26 c3 -8 2 -12 -4 -9 -6 3
-10 10 -10 16 0 14 7 11 14 -7z m361 6 c3 -5 1 -10 -4 -10 -6 0 -11 5 -11 10
0 6 2 10 4 10 3 0 8 -4 11 -10z m242 4 c-3 -3 -12 -4 -19 -1 -8 3 -5 6 6 6 11
1 17 -2 13 -5z m369 -15 c19 -22 19 -22 -3 -8 -13 8 -23 17 -23 21 0 12 6 9
26 -13z m-1046 -9 c-8 -5 -19 -10 -25 -10 -5 0 -3 5 5 10 8 5 20 10 25 10 6 0
3 -5 -5 -10z m60 -5 c11 -13 10 -14 -4 -9 -9 3 -16 10 -16 15 0 13 6 11 20 -6z
m347 9 c-3 -3 -12 -4 -19 -1 -8 3 -5 6 6 6 11 1 17 -2 13 -5z m-382 -23 c-3
-6 -11 -9 -16 -6 -5 4 -9 1 -9 -4 0 -6 -7 -11 -16 -11 -14 0 -14 -3 -4 -15 10
-12 15 -13 24 -2 18 21 51 44 42 29 -9 -15 12 -45 25 -36 5 3 9 -60 10 -143 0
-81 2 -249 4 -373 1 -124 4 -355 5 -515 l2 -289 69 -34 c38 -18 74 -30 81 -26
7 4 8 3 4 -4 -10 -16 59 -44 116 -47 35 -2 54 2 70 15 21 16 23 27 24 122 2
100 -8 135 -29 105 -6 -8 -7 -7 -4 3 2 8 12 14 21 14 21 -2 21 12 0 20 -10 4
-22 -1 -29 -11 -8 -10 -17 -15 -21 -11 -4 4 -13 3 -21 -4 -7 -6 -16 -8 -20 -4
-3 3 -1 6 7 6 10 0 10 4 -1 17 -12 15 -12 16 1 8 21 -13 52 -17 46 -6 -8 12
20 22 39 15 10 -4 15 0 15 11 0 10 -5 14 -12 9 -10 -6 -10 -4 0 7 14 15 16 49
2 49 -5 0 -7 -6 -4 -14 3 -8 1 -17 -5 -21 -7 -4 -8 0 -4 11 5 13 3 15 -8 9
-12 -8 -12 -6 0 9 13 15 13 19 0 27 -8 5 -9 9 -3 9 5 0 15 -5 22 -12 9 -9 12
-8 12 5 0 9 -6 17 -12 17 -9 0 -9 3 -3 8 16 10 17 64 3 73 -7 5 -16 3 -21 -4
-6 -8 -7 -7 -4 3 2 8 11 14 19 14 13 -1 15 14 14 92 -1 52 1 93 5 92 3 -2 41
-55 84 -118 43 -63 106 -153 141 -200 l64 -85 1 -75 c1 -41 3 -84 4 -95 19
-165 35 -226 87 -335 33 -69 57 -101 131 -175 49 -49 86 -83 82 -75 -4 8 2 5
12 -8 13 -16 25 -21 38 -17 16 6 17 5 5 -4 -13 -10 -12 -12 6 -10 3 0 11 -7
18 -17 14 -19 41 -10 29 9 -4 7 2 5 13 -3 29 -22 30 -24 11 -17 -13 5 -17 3
-14 -5 2 -7 11 -12 21 -10 9 2 16 -1 16 -7 0 -9 69 -29 125 -35 17 -2 30 -5
30 -6 0 -1 19 -3 42 -4 23 -1 39 2 37 6 -3 5 0 8 5 8 6 0 11 -4 11 -9 0 -4 10
-8 23 -7 17 1 22 7 20 26 -2 23 -1 23 12 -5 8 -16 14 -25 15 -18 0 6 9 9 20 6
11 -3 20 0 20 6 0 6 -3 10 -7 9 -5 0 -16 2 -26 7 -15 6 -16 10 -5 16 8 5 20 1
33 -11 23 -21 33 -21 89 3 21 9 44 17 50 17 6 0 3 5 -7 11 -9 6 -15 15 -11 21
4 6 -2 8 -17 4 -13 -3 -18 -3 -11 0 6 3 9 10 6 16 -4 6 3 5 15 -2 12 -6 19
-15 16 -21 -4 -5 5 -9 19 -9 14 0 26 5 26 10 0 6 6 10 14 10 8 0 24 12 35 26
12 15 21 23 21 19 0 -4 7 -2 15 5 9 7 14 19 11 27 -4 8 -1 11 5 7 6 -3 19 3
30 15 11 12 17 21 13 21 -4 0 5 10 20 21 23 18 31 20 52 10 14 -6 35 -11 47
-11 31 -1 73 -25 58 -34 -6 -4 -11 -2 -11 4 0 6 -16 10 -40 8 -71 -4 -151 -91
-117 -126 13 -12 20 -12 51 3 28 14 39 15 50 6 13 -11 13 -17 0 -46 -8 -19
-14 -42 -14 -51 0 -14 -36 -53 -50 -54 -3 0 -11 13 -18 29 -7 16 -28 35 -50
45 -34 16 -40 16 -75 1 -20 -8 -38 -21 -38 -28 -3 -24 -9 -93 -11 -134 -2 -22
-6 -45 -10 -49 -5 -4 -35 -9 -68 -10 -43 -2 -68 -9 -87 -23 -14 -12 -31 -21
-37 -21 -7 0 -25 -13 -42 -29 -24 -23 -59 -42 -84 -46 -3 0 -9 -3 -15 -6 -5
-4 -26 -10 -45 -15 -19 -4 -39 -9 -45 -10 -5 -1 -85 -14 -176 -28 -267 -41
-422 -28 -684 59 -55 18 -113 36 -130 39 -39 10 -176 85 -242 133 -75 55 -208
163 -211 172 -1 4 -33 39 -71 77 -37 39 -99 115 -137 170 -38 54 -76 106 -84
114 -20 21 -80 111 -80 122 0 5 -20 50 -44 101 -80 167 -94 204 -111 302 -2
11 -7 38 -11 60 -4 22 -7 111 -6 199 1 158 -7 198 -17 88 -7 -78 -6 -259 2
-302 21 -117 88 -309 150 -435 50 -101 135 -234 196 -305 26 -30 56 -66 67
-80 56 -74 229 -231 348 -318 105 -77 274 -168 333 -178 15 -3 44 -9 63 -14
19 -4 58 -11 85 -14 28 -4 82 -13 120 -21 130 -27 170 -30 265 -24 52 4 136
10 185 13 50 4 142 20 205 37 153 40 147 40 160 24 15 -18 -6 -29 -85 -45 -33
-6 -76 -15 -95 -20 -19 -5 -60 -11 -90 -15 -30 -4 -64 -10 -75 -12 -37 -10
-400 -12 -445 -3 -25 4 -65 11 -89 15 -133 20 -452 135 -561 203 -111 69 -363
302 -443 409 -116 155 -222 336 -267 455 -28 76 -54 100 -34 31 30 -102 200
-417 236 -440 8 -4 30 -30 49 -58 18 -27 59 -76 89 -108 30 -32 58 -65 63 -72
12 -21 175 -157 242 -201 33 -22 85 -51 115 -66 129 -61 328 -148 341 -148 8
0 41 -9 74 -19 94 -29 147 -35 425 -44 33 -1 182 11 225 19 11 1 49 6 85 9 36
3 73 8 83 11 18 6 18 5 1 -21 -9 -14 -30 -29 -45 -32 -16 -3 -26 -10 -23 -17
3 -7 -1 -13 -8 -14 -23 -1 -102 -12 -157 -21 -81 -13 -400 -5 -486 12 -17 4
-47 9 -68 12 -102 14 -275 80 -452 170 -176 91 -220 121 -312 212 -41 40 -78
73 -82 73 -5 0 -15 10 -24 23 -8 12 -34 42 -57 67 -23 25 -65 77 -94 115 -84
111 -259 430 -270 492 -2 16 -9 42 -15 58 -28 82 -51 168 -51 188 0 13 -6 32
-14 42 -9 12 -11 27 -6 40 8 22 2 114 -9 130 -7 10 -6 146 2 318 2 54 1 100
-4 103 -5 3 4 19 19 35 l27 31 8 -53 c10 -64 10 -92 1 -271 -5 -101 -4 -138 5
-138 7 0 11 24 11 68 1 92 9 180 22 221 l11 35 32 -36 33 -36 34 47 c31 43 33
51 31 119 -1 68 0 73 18 69 10 -3 19 0 19 5 0 13 43 -48 53 -75 13 -34 50 -16
76 35 23 45 23 51 12 103 -8 33 -23 66 -40 84 -17 18 -25 35 -20 42 17 28 95
-100 104 -171 4 -31 -1 -53 -20 -90 -38 -76 -37 -98 7 -187 26 -52 110 -7 116
60 1 18 4 46 6 62 3 30 -9 75 -23 85 -14 9 -81 112 -81 124 0 6 -9 28 -20 49
-11 20 -20 39 -20 41 0 2 19 -6 43 -18 55 -27 116 -25 152 6 51 44 76 129 44
149 -7 4 -5 9 5 12 9 4 16 3 16 -1 0 -5 6 -16 13 -26 18 -25 45 -10 53 30 6
33 19 46 22 22 7 -51 23 -98 33 -98 5 0 9 -8 10 -17 0 -14 2 -13 9 5 11 26 22
30 13 5 -5 -14 -3 -15 6 -7 7 7 14 27 14 45 1 19 5 36 9 39 4 3 10 21 13 40 3
19 13 48 21 64 10 22 11 32 3 42 -12 15 -44 20 -35 6 2 -4 -5 -14 -17 -21 -12
-8 -19 -10 -15 -6 9 10 -14 34 -27 28 -5 -2 3 7 19 21 17 14 33 23 38 20 4 -3
8 0 8 7 0 7 3 10 6 6 3 -3 3 -11 -1 -16z m1011 -1 c5 1 10 -4 12 -12 3 -11 2
-11 -6 0 -5 8 -13 13 -18 12 -5 -1 -10 4 -12 12 -3 11 -2 11 6 0 5 -8 13 -13
18 -12z m-626 -2 c0 -3 -9 -6 -20 -5 -11 1 -20 5 -20 9 0 3 9 6 20 5 11 -1 20
-5 20 -9z m-1224 -48 c13 -5 24 -18 24 -28 0 -10 5 -23 12 -30 13 -13 12 -13
-44 -16 -16 -1 -24 -9 -28 -28 l-5 -27 -27 24 c-33 28 -33 28 -11 62 18 27 19
30 21 73 l2 24 16 -22 c9 -13 27 -27 40 -32z m1170 35 c-3 -8 2 -19 12 -24 9
-6 12 -11 7 -11 -17 0 -34 21 -28 36 3 8 7 14 10 14 3 0 3 -7 -1 -15z m-281
-5 c3 -5 1 -10 -4 -10 -6 0 -11 5 -11 10 0 6 2 10 4 10 3 0 8 -4 11 -10z m322
-6 c-3 -3 -12 -4 -19 -1 -8 3 -5 6 6 6 11 1 17 -2 13 -5z m663 -39 c0 -12 -20
6 -31 28 l-11 22 21 -22 c11 -12 21 -25 21 -28z m24 31 c-3 -9 -12 -12 -22 -9
-15 6 -9 11 25 22 1 1 0 -5 -3 -13z m-1116 -37 c8 -12 9 -18 4 -15 -6 3 -12 3
-15 -1 -2 -5 -2 -2 -1 5 2 6 -1 12 -6 12 -6 0 -10 5 -10 10 0 17 14 11 28 -11z
m64 -1 c-7 -7 -12 -8 -12 -2 0 14 12 26 19 19 2 -3 -1 -11 -7 -17z m1060 5
c-6 -3 -9 -10 -5 -16 3 -7 3 -9 -2 -5 -4 4 -17 3 -29 -3 -13 -7 -9 -1 9 14 17
14 32 23 35 20 3 -3 -1 -8 -8 -10z m-676 -6 c10 -10 -6 -27 -24 -26 -14 0 -14
2 2 8 15 6 17 9 6 16 -8 5 -18 0 -29 -14 l-16 -21 0 23 c0 19 5 23 28 22 15
-1 30 -4 33 -8z m-410 -13 c-4 -9 -1 -23 5 -30 7 -9 8 -14 1 -14 -6 0 -12 5
-14 12 -3 7 -11 9 -24 3 -10 -4 -25 -7 -31 -6 -8 1 -10 -5 -6 -16 5 -14 3 -15
-7 -6 -15 14 -3 36 15 29 7 -2 24 6 37 19 28 28 32 30 24 9z m427 -19 c-3 -9
-8 -14 -10 -11 -3 3 -2 9 2 15 9 16 15 13 8 -4z m2219 -25 c29 -59 68 -150 68
-160 0 -19 -15 -9 -48 30 -32 39 -56 86 -73 143 -7 25 -6 28 14 25 13 -2 29
-17 39 -38z m-1565 24 c-3 -3 -12 -4 -19 -1 -8 3 -5 6 6 6 11 1 17 -2 13 -5z
m-683 -28 c-8 -21 -28 -21 -45 1 -13 15 -12 15 9 4 18 -10 23 -9 28 4 4 9 8
14 10 12 3 -2 2 -12 -2 -21z m667 6 c-7 -2 -18 1 -23 6 -8 8 -4 9 13 5 13 -4
18 -8 10 -11z m49 3 c11 -13 10 -14 -4 -9 -9 3 -16 1 -16 -5 0 -6 -5 -11 -10
-11 -6 0 -5 8 2 20 15 24 13 23 28 5z m-1119 -16 c16 -8 18 -13 8 -25 -13 -16
-29 -19 -29 -4 0 6 3 9 8 9 19 -3 26 2 13 10 -15 10 -44 3 -37 -8 3 -4 -4 -8
-15 -8 -18 -2 -18 0 3 17 28 23 25 23 49 9z m439 1 c0 -5 -5 -10 -11 -10 -8 0
-8 -5 1 -15 9 -10 9 -15 1 -15 -6 0 -11 5 -11 11 0 5 -5 7 -11 4 -6 -4 -5 2 3
14 14 22 28 28 28 11z m628 -18 c2 -7 -1 -12 -8 -12 -6 0 -9 4 -6 9 4 5 1 12
-4 14 -6 3 -5 4 2 3 6 -1 14 -8 16 -14z m52 0 c0 -5 -11 -15 -25 -22 -13 -7
-22 -17 -19 -21 2 -4 0 -10 -5 -14 -6 -3 -8 -12 -4 -20 3 -8 0 -15 -7 -15 -6
0 -9 4 -5 9 3 5 1 12 -4 16 -13 7 -10 44 4 39 5 -2 21 5 35 16 29 22 30 23 30
12z m-716 -27 c10 -8 23 -12 28 -9 5 4 4 -3 -4 -15 -7 -12 -17 -21 -22 -21 -4
0 -3 7 5 16 11 13 9 15 -12 11 -13 -2 -18 -2 -11 0 7 3 10 9 7 14 -4 5 -15 4
-28 -3 -20 -10 -21 -10 -8 5 16 20 20 21 45 2z m733 0 c0 -8 -4 -12 -9 -9 -5
3 -6 10 -3 15 9 13 12 11 12 -6z m-1154 -16 c23 -26 19 -32 -7 -13 -11 8 -16
14 -10 15 5 0 0 4 -11 9 -14 6 -15 9 -5 9 9 1 24 -8 33 -20z m1157 -17 c3 -3
-5 -1 -17 2 -14 5 -23 3 -23 -3 0 -6 -5 -11 -10 -11 -6 0 -5 8 2 19 12 20 15
19 48 -7z m-1787 -2 c-3 -10 -11 -24 -18 -30 -10 -8 -14 -3 -17 20 -4 26 -1
30 18 30 17 0 21 -4 17 -20z m219 -67 c15 -31 7 -36 -24 -15 -26 17 -26 17 -9
57 l16 40 3 -30 c1 -16 8 -40 14 -52z m399 50 c2 1 1 -2 -4 -8 -5 -6 -11 -4
-17 5 -15 23 -11 37 4 18 7 -10 15 -17 17 -15z m419 -9 c0 5 7 3 15 -4 8 -7
15 -20 15 -29 -1 -12 -4 -10 -13 6 -11 21 -15 23 -36 23 -5 0 -11 10 -14 23
-6 21 -6 21 13 -3 11 -14 20 -21 20 -16z m55 6 c-3 -5 -11 -10 -16 -10 -6 0
-7 5 -4 10 3 6 11 10 16 10 6 0 7 -4 4 -10z m682 -5 c0 -8 -4 -12 -9 -9 -4 3
-8 9 -8 15 0 5 4 9 8 9 5 0 9 -7 9 -15z m-38 -21 c-11 -13 -9 -14 14 -9 18 5
27 3 27 -5 0 -6 -5 -8 -10 -5 -6 4 -22 -1 -37 -10 -14 -9 -23 -13 -19 -7 3 5
-1 12 -9 16 -8 3 -15 11 -14 18 0 10 2 10 6 1 2 -7 9 -13 14 -13 6 0 7 5 3 12
-4 7 -3 8 4 4 7 -4 12 -2 12 3 0 6 5 11 11 11 8 0 7 -5 -2 -16z m-689 -28 c0
-6 -5 -5 -12 2 -17 17 -33 15 -18 -3 9 -10 9 -15 1 -15 -6 0 -11 3 -12 8 0 4
-2 15 -4 24 -3 14 1 15 21 6 13 -6 24 -16 24 -22z m623 7 c-4 -10 -2 -14 4
-10 6 4 13 0 17 -8 3 -8 0 -17 -7 -21 -7 -4 -9 -4 -5 1 4 4 0 13 -9 20 -9 7
-13 17 -9 23 11 18 16 14 9 -5z m-28 -13 c-3 -5 -2 -10 4 -10 6 0 16 -10 22
-22 12 -22 11 -22 -14 2 -22 21 -27 40 -11 40 3 0 2 -4 -1 -10z m-617 -46 c-7
-15 -14 -21 -16 -15 -2 7 2 18 8 26 18 22 21 18 8 -11z m617 8 c-3 -3 -11 0
-18 7 -9 10 -8 11 6 5 10 -3 15 -9 12 -12z m1733 -1 c24 -30 34 -66 38 -140 3
-41 7 -78 10 -83 3 -4 1 -8 -4 -8 -12 0 -23 26 -27 67 -4 36 -29 88 -48 100
-7 4 -18 24 -24 44 -10 35 -10 37 16 37 14 0 31 -8 39 -17z m-2290 -2 c-10 -5
-18 -17 -18 -25 0 -8 5 -12 10 -9 6 3 10 1 10 -4 0 -19 -17 -12 -34 14 -13 19
-13 23 -2 19 8 -3 17 -1 21 5 3 6 12 11 18 11 7 0 4 -5 -5 -11z m2137 1 c-3
-5 -10 -10 -16 -10 -5 0 -9 5 -9 10 0 6 7 10 16 10 8 0 12 -4 9 -10z m48 -12
c7 -23 -9 -23 -22 0 -7 14 -6 19 4 19 7 0 16 -9 18 -19z m-3173 4 c0 -13 -12
-22 -22 -16 -10 6 -1 24 13 24 5 0 9 -4 9 -8z m1547 -5 c20 7 26 -18 8 -35
-16 -16 -17 -16 -6 4 9 19 8 22 -15 22 -19 0 -22 -3 -13 -14 8 -10 8 -14 0
-14 -6 0 -11 5 -11 11 0 6 -9 9 -20 6 -11 -3 -18 -1 -14 4 3 5 12 9 20 9 9 0
12 5 8 11 -4 8 -1 8 12 1 11 -5 24 -7 31 -5z m-602 -17 c3 -5 1 -10 -4 -10 -6
0 -11 5 -11 10 0 6 2 10 4 10 3 0 8 -4 11 -10z m22 -36 c2 -6 -4 -14 -13 -18
-15 -6 -15 -4 -3 11 12 15 12 16 -3 10 -10 -3 -18 -2 -18 4 0 14 32 7 37 -7z
m541 -2 c2 -6 -1 -12 -8 -12 -6 0 -8 5 -5 10 3 6 1 10 -4 10 -6 0 -11 -6 -11
-12 0 -9 -4 -8 -10 2 -9 13 -11 13 -20 0 -5 -8 -10 -10 -10 -4 0 6 3 13 6 17
10 10 57 2 62 -11z m-583 -12 c3 -5 2 -10 -4 -10 -5 0 -13 5 -16 10 -3 6 -2
10 4 10 5 0 13 -4 16 -10z m485 -18 c0 -5 -16 -20 -36 -34 -19 -14 -35 -30
-34 -34 1 -5 -4 -10 -12 -12 -9 -2 -9 -1 -2 5 6 4 10 15 9 24 -2 9 2 23 7 30
8 11 8 10 4 -4 -4 -12 -2 -17 6 -14 7 2 12 10 11 16 -2 6 0 10 5 10 19 -3 33
2 27 11 -3 6 -1 10 4 10 6 0 11 -4 11 -8z m38 -21 c-22 -27 -38 -31 -38 -10 0
6 4 8 8 5 5 -3 15 4 22 15 8 10 18 19 23 19 5 0 -2 -13 -15 -29z m-131 -33
c-3 -8 -6 -5 -6 6 -1 11 2 17 5 13 3 -3 4 -12 1 -19z m99 -17 c1 -1 12 3 23
11 12 8 18 18 14 21 -3 4 -1 7 5 7 20 0 13 -17 -14 -35 -28 -18 -54 -7 -54 24
1 13 3 12 12 -4 6 -11 12 -22 14 -24z m-179 -22 c-16 -26 -33 -30 -33 -9 0 11
5 16 15 12 8 -3 12 -1 8 5 -3 5 0 10 7 10 11 0 12 -4 3 -18z m83 2 c7 -11 17
-18 22 -15 4 3 8 3 8 0 0 -16 -20 -12 -40 9 -13 14 -19 25 -14 25 5 0 16 -9
24 -19z m-41 -17 c-12 -15 -11 -16 8 -10 12 4 24 3 26 -1 3 -5 -12 -8 -34 -8
-21 0 -39 3 -39 7 0 5 7 8 15 8 8 0 15 5 15 10 0 6 5 10 11 10 8 0 7 -6 -2
-16z m-109 -8 c0 -3 -4 -8 -10 -11 -5 -3 -10 -1 -10 4 0 6 5 11 10 11 6 0 10
-2 10 -4z m40 -28 c0 -6 -7 -4 -16 3 -15 12 -16 11 -10 -11 6 -21 5 -22 -4 -7
-6 9 -8 21 -5 27 7 11 35 2 35 -12z m57 -4 c-3 -3 -12 -4 -19 -1 -8 3 -5 6 6
6 11 1 17 -2 13 -5z m2052 -22 c12 -28 16 -65 13 -111 l-2 -24 -20 23 c-21 24
-24 33 -35 103 -5 32 -3 37 13 37 12 0 24 -11 31 -28z m-2093 9 c-4 -5 -3 -11
1 -14 5 -2 3 -2 -4 -1 -7 2 -15 -1 -18 -6 -4 -6 -3 -10 2 -10 15 0 43 -59 31
-66 -7 -4 -8 -2 -4 5 4 6 0 14 -8 17 -9 3 -14 10 -11 14 3 4 -2 13 -10 20 -14
11 -14 15 1 31 18 20 29 25 20 10z m729 -68 c10 -16 14 -25 10 -21 -4 4 -14 0
-21 -10 -12 -16 -14 -16 -31 2 -17 18 -17 18 3 7 19 -9 22 -8 22 15 0 19 -3
22 -14 13 -9 -7 -14 -8 -14 -1 0 6 6 13 13 15 6 3 13 6 13 6 1 1 10 -11 19
-26z m55 13 c0 -2 -6 -9 -14 -15 -11 -9 -16 -9 -22 0 -4 8 -3 9 4 5 7 -4 12
-2 12 3 0 6 5 11 10 11 6 0 10 -2 10 -4z m-1103 -28 c-3 -8 -6 -5 -6 6 -1 11
2 17 5 13 3 -3 4 -12 1 -19z m981 4 c2 -7 -1 -12 -8 -12 -6 0 -9 4 -6 9 4 5 1
12 -4 14 -6 3 -5 4 2 3 6 -1 14 -8 16 -14z m148 -4 c4 -7 3 -8 -5 -4 -6 4 -20
2 -29 -6 -15 -12 -16 -11 -3 5 16 20 27 22 37 5z m-1114 -25 c-6 -3 -9 -10 -6
-15 4 -7 2 -8 -5 -4 -9 6 -9 11 0 22 6 8 15 12 18 8 3 -4 0 -9 -7 -11z m921
-3 c9 -11 12 -20 7 -20 -6 0 -13 7 -16 15 -8 20 -17 19 -32 -5 -10 -17 -9 -25
4 -48 l16 -27 -20 24 c-14 18 -24 22 -38 16 -29 -13 -45 -14 -38 -4 3 5 9 7
14 4 5 -3 24 10 42 29 18 19 35 35 38 35 3 1 13 -8 23 -19z m482 10 c3 -6 -1
-7 -9 -4 -18 7 -21 14 -7 14 6 0 13 -4 16 -10z m-417 -15 c4 -4 2 -5 -5 -2 -6
4 -13 2 -15 -5 -3 -9 -9 -8 -21 4 -16 16 -15 16 8 14 14 -1 28 -6 33 -11z
m-963 -40 c2 -14 0 -23 -5 -20 -4 2 -7 16 -7 30 0 32 9 25 12 -10z m25 -11
c-11 -18 -11 -18 -6 0 4 10 1 26 -6 35 -11 14 -10 14 6 0 15 -14 16 -20 6 -35z
m346 24 c4 -6 3 -8 -4 -4 -6 3 -13 2 -17 -4 -3 -5 2 -10 12 -11 14 0 15 -2 3
-6 -8 -3 -19 -11 -23 -17 -6 -7 -7 -4 -3 7 3 9 0 17 -6 17 -7 0 -3 7 8 15 23
18 21 17 30 3z m1049 -30 c14 -29 14 -31 0 -14 -8 11 -15 24 -15 29 0 4 -5 5
-12 1 -7 -4 -8 -3 -4 4 11 17 14 15 31 -20z m-1429 -13 c16 -8 22 -15 13 -15
-8 0 -24 7 -35 15 -25 19 -14 19 22 0z m51 1 c-3 -7 0 -20 6 -27 10 -11 9 -11
-5 0 -15 11 -15 41 -1 41 3 0 3 -6 0 -14z m346 -3 c-5 -12 -3 -14 8 -8 11 6
12 5 2 -5 -7 -8 -16 -11 -19 -7 -7 6 2 37 10 37 3 0 2 -7 -1 -17z m374 10 c-4
-3 0 -17 8 -30 17 -25 11 -31 -8 -10 -11 10 -13 23 -8 42 0 3 4 5 8 5 3 0 3
-3 0 -7z m82 4 c-26 -19 -60 -37 -55 -29 3 6 3 12 -1 15 -5 2 -3 2 4 1 7 -2
15 1 18 6 4 6 13 10 22 10 9 0 14 -1 12 -3z m558 -29 c-3 -8 -6 -5 -6 6 -1 11
2 17 5 13 3 -3 4 -12 1 -19z m-555 5 c-6 -2 -9 -10 -5 -16 3 -7 3 -9 -2 -5 -4
4 -14 3 -22 -3 -7 -6 -13 -8 -13 -4 0 10 32 34 45 34 6 0 4 -3 -3 -6z m1208
-24 c17 -30 -4 -29 -22 1 -13 23 -14 28 -2 23 8 -3 19 -14 24 -24z m414 2 c10
-11 31 -25 47 -31 30 -13 30 -13 11 -34 -11 -12 -38 -58 -61 -102 -27 -53 -56
-93 -81 -113 -45 -36 -50 -29 -20 26 11 21 20 47 20 59 0 11 7 43 15 70 8 27
17 67 21 89 9 62 19 69 48 36z m-2492 -8 c-6 -3 -9 -10 -6 -15 4 -7 2 -8 -5
-4 -9 6 -9 11 0 22 6 8 15 12 18 8 3 -4 0 -9 -7 -11z m34 -4 c-8 -12 -12 -27
-10 -34 3 -7 1 -16 -5 -19 -6 -4 -9 3 -7 16 4 32 16 58 28 58 5 0 2 -10 -6
-21z m399 -7 c-3 -3 -11 0 -18 7 -9 10 -8 11 6 5 10 -3 15 -9 12 -12z m349 3
c3 -8 1 -15 -4 -15 -6 0 -10 7 -10 15 0 8 2 15 4 15 2 0 6 -7 10 -15z m-707
-1 c-3 -3 -12 -4 -19 -1 -8 3 -5 6 6 6 11 1 17 -2 13 -5z m683 -19 c10 -12 10
-18 0 -30 -10 -12 -10 -18 0 -30 8 -9 8 -15 2 -15 -6 0 -12 6 -15 13 -6 20
-54 -11 -68 -44 -6 -16 -16 -29 -21 -29 -5 0 -7 -4 -4 -9 3 -5 -2 -15 -12 -22
-15 -13 -16 -12 -3 4 7 9 10 17 6 17 -5 0 -1 8 7 18 16 19 32 53 30 64 -1 4 4
5 11 3 6 -3 25 5 41 18 27 22 27 24 12 40 -10 9 -13 17 -8 17 5 0 15 -7 22
-15z m690 1 c0 -3 -4 -8 -10 -11 -5 -3 -10 -1 -10 4 0 6 5 11 10 11 6 0 10 -2
10 -4z m-712 -17 c-2 -6 -7 -10 -12 -9 -5 1 -13 -4 -18 -12 -8 -10 -9 -10 -5
2 2 8 10 14 16 13 6 -2 11 2 11 7 0 6 3 10 6 10 3 0 4 -5 2 -11z m713 -15
c-21 -27 -18 -40 14 -67 6 -5 4 -7 -4 -5 -8 2 -20 13 -28 24 -12 18 -11 24 8
47 11 15 23 27 25 27 3 0 -4 -12 -15 -26z m-1411 -19 c-14 -17 -30 -20 -30 -4
0 5 4 8 9 4 5 -3 13 5 17 17 4 14 9 18 12 10 2 -7 -2 -19 -8 -27z m2303 -22
c1 -4 -12 -10 -30 -14 -24 -5 -30 -3 -26 7 3 8 12 14 21 14 12 0 13 3 4 12 -7
7 -12 16 -12 20 0 8 38 -27 43 -39z m-2270 0 c-5 -11 -8 -12 -13 -2 -5 7 -6
19 -3 26 5 11 8 12 13 2 5 -7 6 -19 3 -26z m-78 7 c-3 -5 -1 -10 4 -10 6 0 11
-5 11 -11 0 -8 -5 -8 -15 1 -13 11 -12 30 1 30 3 0 2 -4 -1 -10z m60 -24 c12
-12 12 -15 -3 -22 -9 -4 -21 -8 -27 -9 -5 0 -16 -4 -23 -9 -26 -16 -22 2 4 19
15 9 23 12 20 6 -4 -6 -3 -11 2 -11 16 0 22 13 11 27 -15 17 -1 17 16 -1z
m671 -16 c5 1 10 -4 12 -12 3 -11 2 -11 -6 0 -5 8 -13 13 -18 12 -5 -1 -10 4
-12 12 -3 11 -2 11 6 0 5 -8 13 -13 18 -12z m698 -1 c-8 -14 -21 -11 -21 5 0
8 6 12 14 9 7 -3 10 -9 7 -14z m15 -26 c-12 -15 -12 -16 4 -10 10 4 16 3 12
-2 -8 -14 -58 -8 -61 7 -1 7 0 8 3 2 2 -5 9 -10 14 -10 6 0 7 5 3 12 -4 7 -3
8 4 4 7 -4 12 -2 12 3 0 6 5 11 11 11 8 0 7 -6 -2 -17z m951 -10 c0 -39 -11
-74 -20 -68 -4 3 -4 22 0 42 5 20 7 41 4 45 -3 4 0 8 5 8 6 0 11 -12 11 -27z
m-2350 -5 c0 -4 -5 -8 -11 -8 -5 0 -7 -5 -4 -11 4 -6 -2 -5 -14 2 -11 8 -16
16 -10 19 14 9 39 8 39 -2z m40 -1 c0 -2 -9 -14 -20 -27 -11 -13 -20 -18 -20
-12 0 6 7 18 16 26 15 15 24 20 24 13z m1033 -28 c-6 -6 -9 -19 -6 -28 4 -13
3 -13 -5 -2 -10 14 6 56 17 45 3 -2 0 -9 -6 -15z m224 14 c-9 -2 -15 -8 -12
-13 3 -5 13 -7 23 -4 11 4 8 -2 -8 -14 -14 -12 -27 -18 -30 -15 -3 3 1 8 8 10
11 4 10 9 -2 22 -14 15 -13 17 12 18 15 0 19 -1 9 -4z m-1336 -33 c5 0 9 -5 9
-11 0 -8 -5 -8 -15 1 -8 7 -14 20 -14 29 1 13 2 13 6 -1 2 -10 9 -18 14 -18z
m669 5 c0 -9 -7 -18 -15 -21 -8 -4 -12 -11 -8 -18 3 -6 2 -7 -2 -3 -16 14 -14
39 2 33 11 -4 13 -2 9 9 -3 8 -1 15 4 15 6 0 10 -7 10 -15z m30 11 c0 -3 -4
-8 -10 -11 -5 -3 -10 -1 -10 4 0 6 5 11 10 11 6 0 10 -2 10 -4z m-1 -29 c-2
-1 -13 -9 -24 -17 -19 -14 -19 -14 -6 3 7 9 18 17 24 17 6 0 8 -1 6 -3z m-655
-47 c-3 -2 -9 2 -14 10 -7 12 -12 12 -22 2 -6 -6 -17 -12 -22 -12 -6 0 0 9 14
19 22 18 25 18 36 3 7 -10 10 -19 8 -22z m638 3 c-6 -3 -10 -9 -7 -14 4 -5 -1
-6 -9 -3 -9 3 -16 10 -16 16 0 5 4 7 9 3 5 -3 13 0 16 6 4 5 10 7 14 3 3 -4 0
-9 -7 -11z m-642 -19 c0 -2 -7 -4 -15 -4 -8 0 -15 4 -15 10 0 5 7 7 15 4 8 -4
15 -8 15 -10z m-13 -36 c2 -18 0 -20 -7 -8 -12 18 -13 30 -2 30 4 0 9 -10 9
-22z m20 0 c-3 -8 -6 -5 -6 6 -1 11 2 17 5 13 3 -3 4 -12 1 -19z m1063 18 c0
-3 -4 -8 -10 -11 -5 -3 -10 -1 -10 4 0 6 5 11 10 11 6 0 10 -2 10 -4z m-1115
-16 c-3 -5 -1 -10 4 -10 6 0 11 -5 11 -11 0 -8 -5 -8 -15 1 -13 11 -12 30 1
30 3 0 2 -4 -1 -10z m1054 -56 c-6 -8 -19 -14 -28 -14 -12 1 -10 4 7 13 12 7
19 17 15 22 -4 4 -2 5 5 1 10 -6 10 -11 1 -22z m22 -7 c-6 -8 -9 -17 -6 -20 3
-4 2 -5 -2 -2 -3 3 -17 -2 -31 -11 -13 -9 -22 -12 -18 -6 3 5 -1 12 -9 16 -8
3 -15 10 -15 16 0 6 7 4 16 -4 16 -16 45 -9 59 14 3 6 9 10 12 10 3 0 0 -6 -6
-13z m1234 -54 c-4 -37 -13 -79 -20 -93 -13 -22 -14 -17 -8 55 5 71 15 105 30
105 3 0 2 -30 -2 -67z m-2265 35 c0 -4 -7 -8 -15 -8 -8 0 -15 4 -15 8 0 5 7 9
15 9 8 0 15 -4 15 -9z m34 -13 c-4 -8 -11 -15 -16 -15 -6 0 -5 -6 2 -15 9 -10
9 -15 1 -15 -6 0 -11 5 -11 11 0 5 -6 7 -12 3 -14 -9 10 26 27 38 14 11 15 10
9 -7z m2192 -30 c9 -39 0 -30 -15 15 -6 19 -7 30 -2 25 5 -6 13 -23 17 -40z
m-2261 25 c4 -6 11 -7 17 -4 7 4 8 2 4 -4 -5 -9 -13 -9 -27 -2 -10 6 -19 13
-19 15 0 9 19 5 25 -5z m990 -11 c4 -11 4 -23 1 -26 -3 -4 -6 1 -6 10 0 10 -4
17 -10 17 -5 0 -10 5 -10 10 0 18 19 10 25 -11z m1260 -80 c4 -41 1 -55 -13
-65 -9 -7 -20 -14 -24 -14 -14 0 -19 79 -7 124 11 44 12 46 26 27 7 -11 16
-44 18 -72z m-1209 69 c4 -7 3 -8 -4 -4 -7 4 -12 2 -12 -3 0 -6 -5 -11 -11
-11 -8 0 -8 5 1 15 15 18 17 18 26 3z m-106 -26 c-7 -3 -19 3 -28 13 -16 15
-15 16 12 4 15 -7 23 -15 16 -17z m-938 1 c-6 -3 -9 -10 -6 -15 4 -7 2 -8 -5
-4 -9 6 -9 11 0 22 6 8 15 12 18 8 3 -4 0 -9 -7 -11z m963 -9 c-14 -21 -14
-28 -3 -42 7 -9 -3 -5 -22 10 -19 14 -42 23 -50 21 -13 -4 -13 -3 -1 5 10 7
21 6 34 -1 16 -10 21 -8 34 11 9 12 18 22 20 22 3 0 -2 -12 -12 -26z m-928 -6
c-9 -5 -14 -14 -11 -21 2 -7 -10 -21 -28 -30 l-33 -18 27 21 c16 12 25 27 21
35 -3 8 0 15 7 15 6 0 8 4 5 10 -4 6 1 7 11 3 14 -5 15 -7 1 -15z m975 5 c-6
-3 -10 -9 -6 -14 3 -5 1 -9 -4 -9 -21 0 -19 26 2 27 11 0 15 -1 8 -4z m1160
-51 c-4 -12 -9 -11 -23 7 -10 12 -15 29 -12 38 5 13 9 12 24 -8 9 -12 14 -29
11 -37z m-2105 32 c-3 -3 -12 -4 -19 -1 -8 3 -5 6 6 6 11 1 17 -2 13 -5z m823
-8 c0 -3 -4 -8 -10 -11 -5 -3 -10 -1 -10 4 0 6 5 11 10 11 6 0 10 -2 10 -4z
m-850 -41 c-14 -17 -30 -20 -30 -4 0 5 4 8 9 4 5 -3 13 5 17 17 4 14 9 18 12
10 2 -7 -2 -19 -8 -27z m40 21 c0 -8 -4 -17 -10 -21 -5 -3 -7 -13 -4 -23 5
-14 4 -14 -4 -2 -8 10 -8 18 -1 27 6 7 8 17 4 23 -3 5 -1 10 4 10 6 0 11 -6
11 -14z m746 2 c4 -7 3 -8 -4 -4 -7 4 -12 2 -12 -5 0 -7 -3 -10 -6 -6 -6 5 3
27 11 27 2 0 7 -5 11 -12z m-40 -17 c-4 -5 -1 -11 6 -13 7 -3 5 -7 -6 -11 -10
-4 -15 -3 -11 3 3 6 2 10 -3 10 -16 0 -22 -13 -11 -27 9 -9 8 -13 0 -13 -6 0
-11 4 -11 8 0 11 -39 12 -45 1 -4 -5 -12 -9 -18 -9 -7 0 -4 5 6 11 9 6 15 14
13 18 -3 4 1 8 9 8 8 0 15 -4 15 -9 0 -5 12 0 26 11 29 23 39 26 30 12z m104
-2 c0 -5 4 -8 8 -5 5 3 9 -1 9 -9 0 -21 -10 -19 -25 5 -7 12 -8 20 -2 20 5 0
10 -5 10 -11z m-886 -24 c3 -8 1 -15 -4 -15 -6 0 -10 7 -10 15 0 8 2 15 4 15
2 0 6 -7 10 -15z m-24 -40 c-5 -7 -8 -14 -5 -17 3 -2 -2 -5 -10 -5 -13 0 -13
2 -1 16 11 12 12 21 5 36 -10 20 -10 20 5 1 11 -13 12 -23 6 -31z m75 21 c12
-12 11 -16 -8 -32 -18 -16 -20 -16 -8 -1 11 14 11 20 1 32 -16 19 -3 20 15 1z
m615 -16 c0 -6 -5 -10 -11 -10 -5 0 -7 5 -3 12 5 7 2 9 -8 6 -8 -4 -15 0 -15
7 0 10 5 11 19 4 10 -5 18 -14 18 -19z m-753 -2 c-3 -8 -6 -5 -6 6 -1 11 2 17
5 13 3 -3 4 -12 1 -19z m43 7 c0 -1 -6 -7 -13 -13 -10 -8 -13 -6 -13 7 0 11 6
17 13 14 7 -3 13 -6 13 -8z m1699 -17 l25 -31 -25 13 c-21 12 -22 11 -12 -2
10 -12 8 -19 -13 -37 -21 -19 -24 -25 -13 -32 12 -7 12 -9 0 -9 -11 0 -9 -6 5
-22 l19 -23 -25 20 c-14 11 -26 20 -27 20 -1 1 5 20 13 44 8 23 15 53 16 67 3
31 8 30 37 -8z m-1629 12 c0 -5 -7 -7 -15 -4 -8 4 -15 8 -15 10 0 2 7 4 15 4
8 0 15 -4 15 -10z m2156 -26 c-4 -9 -9 -15 -11 -12 -3 3 -3 13 1 22 4 9 9 15
11 12 3 -3 3 -13 -1 -22z m-2176 6 c0 -5 -2 -10 -4 -10 -3 0 -8 5 -11 10 -3 6
-1 10 4 10 6 0 11 -4 11 -10z m665 -29 c-6 -5 -25 10 -25 20 0 5 6 4 14 -3 8
-7 12 -15 11 -17z m1021 -13 c8 -7 25 -23 38 -35 13 -11 41 -30 62 -42 22 -11
50 -30 64 -41 l25 -21 -42 16 c-26 10 -58 15 -86 12 -45 -5 -79 5 -58 17 15
10 14 61 -2 75 -8 6 -16 9 -19 6 -2 -3 -5 2 -5 10 0 18 4 19 23 3z m732 -42
c10 -22 8 -24 -16 -29 -34 -7 -35 -5 -21 27 15 32 23 33 37 2z m-548 -41 c0
-8 4 -15 8 -15 5 0 14 -11 20 -25 16 -36 2 -31 -31 10 -15 19 -34 35 -42 35
-18 0 -20 17 -2 23 18 6 47 -11 47 -28z m-206 -24 c-8 -8 -34 -10 -38 -2 -3 4
6 7 19 7 14 0 22 -2 19 -5z m-951 -31 c3 -11 2 -22 -2 -24 -4 -3 -8 6 -9 20
-2 29 4 31 11 4z m887 -26 c0 -3 -7 -1 -15 6 -8 7 -15 8 -15 2 0 -5 7 -15 15
-22 8 -7 15 -18 14 -24 0 -20 -34 37 -34 61 -1 22 -1 22 17 3 10 -10 18 -22
18 -26z m113 25 c-8 -8 -19 -8 -40 -1 -28 10 -28 10 12 11 28 1 36 -2 28 -10z
m107 1 c8 -5 12 -10 8 -11 -5 -1 -11 -2 -15 -3 -5 -1 -22 -6 -40 -10 -17 -4
-37 -14 -44 -22 -16 -20 -29 -17 -29 6 0 36 83 64 120 40z m-270 -40 c0 -5 -5
-10 -11 -10 -5 0 -7 -5 -3 -12 4 -7 3 -8 -4 -4 -6 4 -9 13 -5 21 6 17 23 20
23 5z m13 -30 c-3 -12 -8 -19 -11 -16 -5 6 5 36 12 36 2 0 2 -9 -1 -20z m-32
-14 c5 3 9 0 9 -6 0 -7 -7 -9 -16 -6 -9 3 -18 6 -20 6 -3 0 -2 5 2 12 6 9 9 9
12 0 2 -7 8 -10 13 -6z m64 -4 c-3 -3 -11 0 -18 7 -9 10 -8 11 6 5 10 -3 15
-9 12 -12z m-75 -35 c0 -8 -3 -8 -9 1 -6 10 -10 8 -14 -9 -4 -13 -9 -20 -12
-17 -10 9 15 49 26 43 5 -4 9 -12 9 -18z m48 16 c-1 -5 4 -20 12 -35 13 -28
42 -44 73 -39 9 1 17 -4 17 -12 0 -17 -38 -13 -89 10 -23 11 -30 18 -21 23 15
9 6 40 -11 40 -8 0 -8 -4 1 -15 7 -9 8 -15 2 -15 -18 0 -21 29 -4 39 21 13 22
13 20 4z m-43 -43 c-3 -5 -12 -10 -18 -10 -7 0 -6 4 3 10 19 12 23 12 15 0z
m-15 -50 c0 -5 -5 -10 -11 -10 -5 0 -7 5 -4 10 3 6 8 10 11 10 2 0 4 -4 4 -10z
m-30 -45 c0 -2 -9 -3 -19 -2 -11 0 -18 5 -15 9 4 6 34 0 34 -7z m-50 -30 c-7
-8 -17 -15 -23 -15 -6 0 -2 7 9 15 25 19 30 19 14 0z m-70 -31 c0 -3 -6 -1
-14 5 -11 9 -13 6 -13 -13 0 -21 2 -24 18 -16 23 13 29 13 29 -2 0 -6 -3 -8
-7 -5 -3 4 -12 2 -19 -4 -15 -13 -37 -2 -31 14 2 7 0 20 -5 31 -7 13 -7 16 1
12 6 -4 11 -2 11 4 0 7 6 5 15 -4 8 -8 15 -18 15 -22z m30 26 c0 -5 -5 -10
-11 -10 -5 0 -7 5 -4 10 3 6 8 10 11 10 2 0 4 -4 4 -10z m-82 -45 c-3 -3 -9 2
-12 12 -6 14 -5 15 5 6 7 -7 10 -15 7 -18z m-38 -5 c-6 -11 -15 -18 -20 -15
-4 3 -11 0 -13 -5 -4 -7 -5 -6 -3 1 1 6 5 9 9 7 5 -2 13 5 18 15 14 24 22 21
9 -3z m-503 -32 c-3 -8 -6 -5 -6 6 -1 11 2 17 5 13 3 -3 4 -12 1 -19z m450 8
c0 -7 -9 -18 -19 -25 -23 -14 -23 -7 -1 19 21 24 20 23 20 6z m-44 -11 c-3 -9
-8 -14 -10 -11 -3 3 -2 9 2 15 9 16 15 13 8 -4z m117 -23 c-7 -3 -19 3 -28 13
-16 15 -15 16 12 4 15 -7 23 -15 16 -17z m-422 -13 c-3 -8 -7 -3 -11 10 -4 17
-3 21 5 13 5 -5 8 -16 6 -23z m29 11 c1 -11 -2 -20 -7 -20 -6 0 -7 17 -1 38 3
8 7 -1 8 -18z m214 -7 c-8 -15 -10 -15 -11 -2 0 17 10 32 18 25 2 -3 -1 -13
-7 -23z m115 1 c-9 -9 -20 -14 -23 -10 -4 3 2 13 13 20 25 18 31 12 10 -10z
m-285 6 c10 -6 19 -16 19 -23 0 -8 -3 -9 -8 -1 -4 6 -16 16 -27 22 -25 14 -11
16 16 2z m59 -35 c0 -12 -20 6 -31 28 l-11 22 21 -22 c11 -12 21 -25 21 -28z
m57 39 c-3 -3 -12 -4 -19 -1 -8 3 -5 6 6 6 11 1 17 -2 13 -5z m47 -38 c21 -18
21 -18 -7 -2 -25 15 -29 15 -60 0 -29 -16 -31 -16 -18 -1 7 10 20 17 28 17 7
0 17 8 20 17 5 14 8 14 11 2 2 -7 14 -22 26 -33z m-84 24 c0 -5 -7 -7 -15 -4
-8 4 -15 8 -15 10 0 2 7 4 15 4 8 0 15 -4 15 -10z m235 0 c-3 -5 -12 -10 -18
-10 -7 0 -6 4 3 10 19 12 23 12 15 0z m-318 -16 c-3 -3 -12 -4 -19 -1 -8 3 -5
6 6 6 11 1 17 -2 13 -5z m979 -56 c-9 -12 -16 -34 -16 -48 -1 -22 -2 -23 -11
-7 -13 23 6 77 28 77 12 0 12 -3 -1 -22z m284 -30 c10 -23 16 -47 12 -53 -4
-5 -7 -12 -7 -15 -10 -79 -27 -97 -99 -111 l-39 -7 25 22 c54 46 97 145 77
177 -7 12 -3 29 7 29 3 0 13 -19 24 -42z m-597 -38 c3 -12 0 -20 -7 -20 -18 0
-25 10 -19 26 7 20 20 17 26 -6z m328 -104 c10 -10 32 -20 48 -22 28 -3 31 -1
31 22 0 23 2 25 16 13 8 -7 13 -21 10 -31 -2 -11 1 -21 8 -24 8 -3 2 -16 -18
-38 -28 -31 -33 -33 -51 -20 -35 25 -69 36 -113 36 l-43 0 30 30 c17 17 33 44
37 61 6 28 7 29 17 11 6 -10 19 -27 28 -38z m-517 -48 c-8 -13 -30 -9 -43 6
-9 11 -9 15 1 18 16 6 48 -13 42 -24z m-231 -172 c21 -16 22 -26 2 -26 -20 0
-65 22 -65 32 0 13 43 9 63 -6z m177 -44 c0 -11 -60 -34 -100 -38 -33 -4 -34
-3 -16 11 11 8 29 15 40 15 12 0 28 5 36 10 18 12 40 13 40 2z"/>
<path d="M1159 3081 c6 -10 23 -26 38 -36 15 -10 43 -32 60 -49 52 -50 57 -53
94 -58 42 -7 125 25 157 60 25 29 26 31 8 54 -20 26 -62 39 -92 28 -14 -6 -40
-10 -58 -10 -19 0 -50 -7 -71 -16 -45 -19 -80 -12 -112 22 -26 29 -38 31 -24
5z"/>
<path d="M750 2322 c0 -18 5 -32 10 -32 6 0 8 11 4 28 -10 39 -14 40 -14 4z"/>
<path d="M2580 3269 c0 -5 5 -7 10 -4 6 3 10 8 10 11 0 2 -4 4 -10 4 -5 0 -10
-5 -10 -11z"/>
<path d="M3530 1989 c0 -5 5 -7 10 -4 6 3 10 8 10 11 0 2 -4 4 -10 4 -5 0 -10
-5 -10 -11z"/>
<path d="M1740 4041 c-118 -60 -236 -138 -225 -149 2 -3 28 11 57 30 63 41
124 76 204 117 32 17 50 31 39 31 -11 0 -45 -13 -75 -29z"/>
<path d="M3351 4066 c9 -10 122 -77 125 -74 4 5 -89 66 -111 74 -11 4 -17 4
-14 0z"/>
<path d="M3530 3939 c14 -11 55 -47 93 -80 37 -33 67 -56 67 -52 0 8 -106 107
-149 140 -27 21 -37 13 -11 -8z"/>
<path d="M3721 3773 c7 -12 15 -20 18 -17 3 2 -3 12 -13 22 -17 16 -18 16 -5
-5z"/>
<path d="M3760 3732 c0 -5 7 -15 15 -22 8 -7 15 -8 15 -2 0 5 -7 15 -15 22 -8
7 -15 8 -15 2z"/>
<path d="M3886 3547 c3 -10 9 -15 12 -12 3 3 0 11 -7 18 -10 9 -11 8 -5 -6z"/>
<path d="M3893 3028 c-3 -82 9 -130 42 -170 l23 -27 -3 32 c-1 17 3 45 10 61
14 32 13 61 -4 111 l-9 30 -1 -32 c-1 -48 -17 -40 -36 17 -9 28 -17 50 -18 50
-1 0 -3 -33 -4 -72z"/>
<path d="M3941 3084 c0 -11 3 -14 6 -6 3 7 2 16 -1 19 -3 4 -6 -2 -5 -13z"/>
<path d="M4435 3074 c-67 -28 -109 -111 -95 -191 4 -25 8 -30 19 -24 8 6 24 6
38 0 12 -4 28 -7 35 -4 7 2 28 6 47 9 40 6 76 37 102 90 24 49 18 67 -29 98
-47 31 -80 38 -117 22z"/>
<path d="M2590 2301 c0 -5 5 -13 10 -16 6 -3 10 -2 10 4 0 5 -4 13 -10 16 -5
3 -10 2 -10 -4z"/>
<path d="M2905 2290 c-3 -5 -1 -10 4 -10 6 0 11 5 11 10 0 6 -2 10 -4 10 -3 0
-8 -4 -11 -10z"/>
</g>
</svg>
